<mxfile host="Electron" modified="2024-06-16T19:25:34.695Z" agent="Mozilla/5.0 (X11; Linux x86_64) AppleWebKit/537.36 (KHTML, like Gecko) draw.io/24.2.5 Chrome/120.0.6099.109 Electron/28.1.0 Safari/537.36" etag="9Q8mM2XZjefLug44Nwb5" version="24.2.5" type="device">
  <diagram name="Page-1" id="avlCHnXeu_SRoVIMynJ5">
    <mxGraphModel dx="1426" dy="875" grid="1" gridSize="10" guides="1" tooltips="1" connect="1" arrows="1" fold="1" page="1" pageScale="1" pageWidth="850" pageHeight="1100" math="0" shadow="0">
      <root>
        <mxCell id="0" />
        <mxCell id="1" parent="0" />
        <mxCell id="nug-kvrVt0xIHleqrJdS-4" style="edgeStyle=orthogonalEdgeStyle;rounded=0;orthogonalLoop=1;jettySize=auto;html=1;" edge="1" parent="1" source="nug-kvrVt0xIHleqrJdS-1" target="nug-kvrVt0xIHleqrJdS-2">
          <mxGeometry relative="1" as="geometry" />
        </mxCell>
        <mxCell id="nug-kvrVt0xIHleqrJdS-5" style="edgeStyle=orthogonalEdgeStyle;rounded=0;orthogonalLoop=1;jettySize=auto;html=1;" edge="1" parent="1" source="nug-kvrVt0xIHleqrJdS-1" target="nug-kvrVt0xIHleqrJdS-3">
          <mxGeometry relative="1" as="geometry" />
        </mxCell>
        <mxCell id="nug-kvrVt0xIHleqrJdS-1" value="ALL OPS" style="ellipse;whiteSpace=wrap;html=1;" vertex="1" parent="1">
          <mxGeometry x="425" y="120" width="120" height="80" as="geometry" />
        </mxCell>
        <mxCell id="nug-kvrVt0xIHleqrJdS-9" style="edgeStyle=orthogonalEdgeStyle;rounded=0;orthogonalLoop=1;jettySize=auto;html=1;" edge="1" parent="1" source="nug-kvrVt0xIHleqrJdS-2" target="nug-kvrVt0xIHleqrJdS-7">
          <mxGeometry relative="1" as="geometry">
            <Array as="points">
              <mxPoint x="140" y="320" />
            </Array>
          </mxGeometry>
        </mxCell>
        <mxCell id="nug-kvrVt0xIHleqrJdS-10" style="edgeStyle=orthogonalEdgeStyle;rounded=0;orthogonalLoop=1;jettySize=auto;html=1;" edge="1" parent="1" source="nug-kvrVt0xIHleqrJdS-2" target="nug-kvrVt0xIHleqrJdS-8">
          <mxGeometry relative="1" as="geometry">
            <Array as="points">
              <mxPoint x="380" y="320" />
            </Array>
          </mxGeometry>
        </mxCell>
        <mxCell id="nug-kvrVt0xIHleqrJdS-2" value="UNARY" style="ellipse;whiteSpace=wrap;html=1;" vertex="1" parent="1">
          <mxGeometry x="200" y="280" width="120" height="80" as="geometry" />
        </mxCell>
        <mxCell id="nug-kvrVt0xIHleqrJdS-13" style="edgeStyle=orthogonalEdgeStyle;rounded=0;orthogonalLoop=1;jettySize=auto;html=1;" edge="1" parent="1" source="nug-kvrVt0xIHleqrJdS-3" target="nug-kvrVt0xIHleqrJdS-12">
          <mxGeometry relative="1" as="geometry">
            <Array as="points">
              <mxPoint x="540" y="320" />
            </Array>
          </mxGeometry>
        </mxCell>
        <mxCell id="nug-kvrVt0xIHleqrJdS-14" style="edgeStyle=orthogonalEdgeStyle;rounded=0;orthogonalLoop=1;jettySize=auto;html=1;" edge="1" parent="1" source="nug-kvrVt0xIHleqrJdS-3" target="nug-kvrVt0xIHleqrJdS-11">
          <mxGeometry relative="1" as="geometry">
            <Array as="points">
              <mxPoint x="690" y="400" />
              <mxPoint x="660" y="400" />
            </Array>
          </mxGeometry>
        </mxCell>
        <mxCell id="nug-kvrVt0xIHleqrJdS-21" style="edgeStyle=orthogonalEdgeStyle;rounded=0;orthogonalLoop=1;jettySize=auto;html=1;" edge="1" parent="1" source="nug-kvrVt0xIHleqrJdS-3" target="nug-kvrVt0xIHleqrJdS-19">
          <mxGeometry relative="1" as="geometry">
            <Array as="points">
              <mxPoint x="750" y="400" />
              <mxPoint x="780" y="400" />
            </Array>
          </mxGeometry>
        </mxCell>
        <mxCell id="nug-kvrVt0xIHleqrJdS-22" style="edgeStyle=orthogonalEdgeStyle;rounded=0;orthogonalLoop=1;jettySize=auto;html=1;" edge="1" parent="1" source="nug-kvrVt0xIHleqrJdS-3" target="nug-kvrVt0xIHleqrJdS-20">
          <mxGeometry relative="1" as="geometry" />
        </mxCell>
        <mxCell id="nug-kvrVt0xIHleqrJdS-3" value="BINARY" style="ellipse;whiteSpace=wrap;html=1;" vertex="1" parent="1">
          <mxGeometry x="660" y="280" width="120" height="80" as="geometry" />
        </mxCell>
        <mxCell id="nug-kvrVt0xIHleqrJdS-7" value="ACCUMULATING" style="ellipse;whiteSpace=wrap;html=1;" vertex="1" parent="1">
          <mxGeometry x="80" y="480" width="120" height="80" as="geometry" />
        </mxCell>
        <mxCell id="nug-kvrVt0xIHleqrJdS-8" value="DIRECT" style="ellipse;whiteSpace=wrap;html=1;" vertex="1" parent="1">
          <mxGeometry x="320" y="480" width="120" height="80" as="geometry" />
        </mxCell>
        <mxCell id="nug-kvrVt0xIHleqrJdS-11" value="PAIRWISE" style="ellipse;whiteSpace=wrap;html=1;" vertex="1" parent="1">
          <mxGeometry x="620" y="480" width="80" height="80" as="geometry" />
        </mxCell>
        <mxCell id="nug-kvrVt0xIHleqrJdS-26" style="edgeStyle=orthogonalEdgeStyle;rounded=0;orthogonalLoop=1;jettySize=auto;html=1;entryX=0.5;entryY=0;entryDx=0;entryDy=0;" edge="1" parent="1" source="nug-kvrVt0xIHleqrJdS-12" target="nug-kvrVt0xIHleqrJdS-23">
          <mxGeometry relative="1" as="geometry" />
        </mxCell>
        <mxCell id="nug-kvrVt0xIHleqrJdS-27" style="edgeStyle=orthogonalEdgeStyle;rounded=0;orthogonalLoop=1;jettySize=auto;html=1;" edge="1" parent="1" source="nug-kvrVt0xIHleqrJdS-12" target="nug-kvrVt0xIHleqrJdS-24">
          <mxGeometry relative="1" as="geometry" />
        </mxCell>
        <mxCell id="nug-kvrVt0xIHleqrJdS-12" value="SCALAR" style="ellipse;whiteSpace=wrap;html=1;" vertex="1" parent="1">
          <mxGeometry x="500" y="480" width="80" height="80" as="geometry" />
        </mxCell>
        <mxCell id="nug-kvrVt0xIHleqrJdS-19" value="BROAD&lt;div&gt;CAST&lt;/div&gt;" style="ellipse;whiteSpace=wrap;html=1;" vertex="1" parent="1">
          <mxGeometry x="740" y="480" width="80" height="80" as="geometry" />
        </mxCell>
        <mxCell id="nug-kvrVt0xIHleqrJdS-20" value="DE&lt;div&gt;BROAD&lt;div&gt;CAST&lt;/div&gt;&lt;/div&gt;" style="ellipse;whiteSpace=wrap;html=1;" vertex="1" parent="1">
          <mxGeometry x="860" y="480" width="80" height="80" as="geometry" />
        </mxCell>
        <mxCell id="nug-kvrVt0xIHleqrJdS-23" value="ACC" style="ellipse;whiteSpace=wrap;html=1;" vertex="1" parent="1">
          <mxGeometry x="500" y="600" width="40" height="40" as="geometry" />
        </mxCell>
        <mxCell id="nug-kvrVt0xIHleqrJdS-24" value="DIR" style="ellipse;whiteSpace=wrap;html=1;" vertex="1" parent="1">
          <mxGeometry x="545" y="600" width="40" height="40" as="geometry" />
        </mxCell>
        <mxCell id="nug-kvrVt0xIHleqrJdS-28" style="edgeStyle=orthogonalEdgeStyle;rounded=0;orthogonalLoop=1;jettySize=auto;html=1;entryX=0.5;entryY=0;entryDx=0;entryDy=0;" edge="1" parent="1" target="nug-kvrVt0xIHleqrJdS-30">
          <mxGeometry relative="1" as="geometry">
            <mxPoint x="660" y="560" as="sourcePoint" />
          </mxGeometry>
        </mxCell>
        <mxCell id="nug-kvrVt0xIHleqrJdS-29" style="edgeStyle=orthogonalEdgeStyle;rounded=0;orthogonalLoop=1;jettySize=auto;html=1;" edge="1" parent="1" target="nug-kvrVt0xIHleqrJdS-31">
          <mxGeometry relative="1" as="geometry">
            <mxPoint x="660" y="560" as="sourcePoint" />
            <Array as="points">
              <mxPoint x="660" y="580" />
              <mxPoint x="685" y="580" />
            </Array>
          </mxGeometry>
        </mxCell>
        <mxCell id="nug-kvrVt0xIHleqrJdS-30" value="ACC" style="ellipse;whiteSpace=wrap;html=1;" vertex="1" parent="1">
          <mxGeometry x="620" y="600" width="40" height="40" as="geometry" />
        </mxCell>
        <mxCell id="nug-kvrVt0xIHleqrJdS-31" value="DIR" style="ellipse;whiteSpace=wrap;html=1;" vertex="1" parent="1">
          <mxGeometry x="665" y="600" width="40" height="40" as="geometry" />
        </mxCell>
        <mxCell id="nug-kvrVt0xIHleqrJdS-32" style="edgeStyle=orthogonalEdgeStyle;rounded=0;orthogonalLoop=1;jettySize=auto;html=1;entryX=0.5;entryY=0;entryDx=0;entryDy=0;" edge="1" parent="1" target="nug-kvrVt0xIHleqrJdS-34">
          <mxGeometry relative="1" as="geometry">
            <mxPoint x="780" y="560" as="sourcePoint" />
          </mxGeometry>
        </mxCell>
        <mxCell id="nug-kvrVt0xIHleqrJdS-33" style="edgeStyle=orthogonalEdgeStyle;rounded=0;orthogonalLoop=1;jettySize=auto;html=1;" edge="1" parent="1" target="nug-kvrVt0xIHleqrJdS-35">
          <mxGeometry relative="1" as="geometry">
            <mxPoint x="780" y="560" as="sourcePoint" />
            <Array as="points">
              <mxPoint x="780" y="580" />
              <mxPoint x="805" y="580" />
            </Array>
          </mxGeometry>
        </mxCell>
        <mxCell id="nug-kvrVt0xIHleqrJdS-34" value="ACC" style="ellipse;whiteSpace=wrap;html=1;" vertex="1" parent="1">
          <mxGeometry x="740" y="600" width="40" height="40" as="geometry" />
        </mxCell>
        <mxCell id="nug-kvrVt0xIHleqrJdS-35" value="DIR" style="ellipse;whiteSpace=wrap;html=1;" vertex="1" parent="1">
          <mxGeometry x="785" y="600" width="40" height="40" as="geometry" />
        </mxCell>
        <mxCell id="nug-kvrVt0xIHleqrJdS-36" style="edgeStyle=orthogonalEdgeStyle;rounded=0;orthogonalLoop=1;jettySize=auto;html=1;entryX=0.5;entryY=0;entryDx=0;entryDy=0;" edge="1" parent="1" target="nug-kvrVt0xIHleqrJdS-38">
          <mxGeometry relative="1" as="geometry">
            <mxPoint x="900" y="560" as="sourcePoint" />
          </mxGeometry>
        </mxCell>
        <mxCell id="nug-kvrVt0xIHleqrJdS-37" style="edgeStyle=orthogonalEdgeStyle;rounded=0;orthogonalLoop=1;jettySize=auto;html=1;" edge="1" parent="1" target="nug-kvrVt0xIHleqrJdS-39">
          <mxGeometry relative="1" as="geometry">
            <mxPoint x="900" y="560" as="sourcePoint" />
            <Array as="points">
              <mxPoint x="900" y="580" />
              <mxPoint x="925" y="580" />
            </Array>
          </mxGeometry>
        </mxCell>
        <mxCell id="nug-kvrVt0xIHleqrJdS-38" value="ACC" style="ellipse;whiteSpace=wrap;html=1;" vertex="1" parent="1">
          <mxGeometry x="860" y="600" width="40" height="40" as="geometry" />
        </mxCell>
        <mxCell id="nug-kvrVt0xIHleqrJdS-39" value="DIR" style="ellipse;whiteSpace=wrap;html=1;" vertex="1" parent="1">
          <mxGeometry x="905" y="600" width="40" height="40" as="geometry" />
        </mxCell>
      </root>
    </mxGraphModel>
  </diagram>
</mxfile>
